<svg xmlns="http://www.w3.org/2000/svg" xmlns:xlink="http://www.w3.org/1999/xlink" xmlns:fi="http://pattern.flaticon.com/" x="0" y="0" width="500" height="250" viewBox="0 0 700 350"><rect x="0px" y="0px" width="100%" height="100%" opacity="1" fill="#170053"/><defs><g transform="matrix(0.125 0 0 0.125 97 224)" id="L1_0"><path d="M303.227,8.435c3.797,1.036,7.558,2.158,11.277,3.374C310.784,10.594,307.025,9.469,303.227,8.435z" fill="#48bbee"/><path d="M206.305,187.699c8.57,0,16.961,2.504,24.234,7.316l20.541,13.599   c4.106,2.718,9.235,3.395,13.905,1.833l36.952-12.354l6.18-5.582c3.703-3.344,5.813-8.125,5.797-13.117   c-0.023-4.273-1.602-8.379-4.391-11.551l-39.044,11.585c-1.349,0.4-2.809,0.064-3.847-0.886l-26.227-24.004   c-1.742-1.598-3.68-0.977-4.227-0.746c-0.547,0.227-2.359,1.152-2.469,3.504l2.258,17.809c0.203,1.648-0.633,3.254-2.109,4.027   c-1.469,0.773-3.273,0.559-4.516-0.547l-21.773-19.305c-7.484-3.953-16.664-2.773-22.937,3.035l-6.962,17.486   c-1.093,2.745-2.924,5.134-5.291,6.902l-11.052,8.253l37.273-6.578C201.164,187.926,203.742,187.699,206.305,187.699z" fill="#48bbee"/><path d="M319.172,13.384c19.196,6.712,37.28,15.794,53.904,26.892c-0.019,0.001-0.039,0.002-0.058,0.003   c16.745,11.175,32.006,24.396,45.422,39.314l0.018-0.034c7.273,8.084,13.975,16.683,20.102,25.705   c0.203,0.298,0.405,0.596,0.606,0.896c2.433,3.617,4.77,7.302,7.008,11.055c0.335,0.562,0.667,1.125,0.998,1.689   c1.702,2.907,3.366,5.839,4.949,8.822l-0.012,0.039c13.481,25.433,22.533,53.577,26.106,83.412c-0.566,0.07-1.146,0.081-1.708-0.09   l-77.07-24.492l3.594,15.977c0.758,3.348,2.82,6.117,5.805,7.809c2.984,1.688,6.422,2.02,9.672,0.945l8.898-2.945   c1.227-0.41,2.555-0.207,3.602,0.555c1.039,0.75,1.656,1.957,1.656,3.242v21.734v0.015c0,8.867-4.203,17.208-11.328,22.485   l-22.887,18.405c-3.526,2.835-8.699,2.185-11.413-1.435l-37.037-49.383c-3.905-5.207-9.306-9.1-15.481-11.158L320,208   l60.539,78.621c5.438,4.527,12.445,6.926,19.836,6.414l11.359-0.777c1.227-0.055,2.43,0.402,3.258,1.324   c0.82,0.922,1.172,2.168,0.953,3.383l-4.672,25.75c-0.156,0.84-0.57,1.609-1.195,2.195l-46.875,44.164l-35.023,88.531   c-0.453,1.152-1.422,2.031-2.617,2.371c-4.414,1.27-8.906,1.895-13.367,1.895c-8.133,0-16.18-2.082-23.476-6.176   c-11.227-6.293-19.289-16.566-22.703-28.934c-2.703-9.797-4.016-16.324-4.016-19.957v-33.391l-5.406-2.078   c-12.453-4.789-23.461-12.805-31.844-23.18l-12.375-15.328l-53.172,9.492c-2.295,0.415-4.596,0.576-6.877,0.541   c15.355,56.699,50.972,105.065,98.597,136.862C247.3,479.886,243.663,480,240,480c132.548,0,240-107.452,240-240   C480,135.196,412.816,46.098,319.172,13.384z" fill="#48bbee"/><path d="M311.64,150.129l12.453-9.207c0.514-0.38,0.838-0.896,1.233-1.364l0.261-0.087   c2.206-2.765,2.385-6.76,0.177-9.74c-2.609-3.547-7.633-4.305-11.188-1.676l-10.328,7.641h-19.586c-4.422,0-8,3.582-8,8   s3.578,8,8,8h4.25h17.969C308.594,151.695,310.265,151.145,311.64,150.129z" fill="#48bbee"/><path d="M355.179,142.488c1.633,0,3.281-0.5,4.703-1.535c0.213-0.155,0.414-0.32,0.607-0.491   c1.339-1.2,2.161-2.787,2.486-4.462l0.045-0.012c0.401-2.099-0.027-4.352-1.389-6.214l-20.477-28.086   c-2.602-3.563-7.602-4.355-11.172-1.75c-3.57,2.602-4.359,7.609-1.75,11.18l20.477,28.086   C350.273,141.348,352.711,142.488,355.179,142.488z" fill="#48bbee"/><path d="M152.326,342.861c-3.923-0.06-7.781-0.756-11.428-2.048c-4.294-1.517-8.279-3.852-11.741-6.888   c-0.206-0.18-0.412-0.358-0.614-0.543c-0.328-0.301-0.648-0.609-0.965-0.923c-0.285-0.281-0.564-0.567-0.84-0.858   c-0.257-0.272-0.513-0.544-0.763-0.825c-0.337-0.379-0.662-0.77-0.984-1.165c-0.185-0.227-0.375-0.448-0.556-0.681   c-0.5-0.644-0.984-1.303-1.443-1.987l0,0c0,0,0-0.001,0-0.001l-5.819-8.667c-8.669-12.907-11.844-28.427-9.361-43.306   c0.033-0.2,0.061-0.401,0.096-0.6c0.043-0.241,0.094-0.482,0.14-0.723c0.079-0.416,0.155-0.831,0.243-1.246   c0.012-0.059,0.028-0.117,0.04-0.176c0.827-3.844,2.034-7.63,3.631-11.302c0.535-1.23,1.114-2.446,1.736-3.648   c0.007-0.014,0.014-0.029,0.021-0.043v0c0,0,0,0,0,0l12.258-23.644l-0.18-8.246c-0.281-12.746,7.844-23.766,19.742-27.387   l-10.867-3.023c-8.281-2.305-14.148-9.617-14.609-18.199l-0.578-10.691c-0.57-10.629,7.273-19.836,17.859-20.957L148,143.953   v-18.906c0-1.254,0.586-2.438,1.594-3.191l31.805-24.004c2.172-1.637,3.953-3.66,5.297-6.02l5.476-9.551l-35.555,6.977   c-1.172,0.223-2.391-0.078-3.313-0.836c-0.93-0.762-1.461-1.895-1.461-3.09V74.367c0-10.938,4.883-21.148,13.406-28.02   l50.094-40.402c1.281-1.035,3.07-1.176,4.508-0.352l35.07,20.199c0.938,0.539,2.023,0.668,3.078,0.387   c1.039-0.293,1.906-0.977,2.422-1.926L273.81,2.446h0l0.016-0.027c36.315,5.125,70.007,18.384,99.191,37.861   c0.02-0.001,0.039-0.002,0.058-0.003c-16.623-11.098-34.708-20.18-53.904-26.892c-0.071-0.025-0.141-0.05-0.211-0.074   c-1.293-0.451-2.592-0.89-3.895-1.319c-0.187-0.062-0.375-0.121-0.562-0.182c-3.719-1.215-7.48-2.338-11.277-3.374   c-0.516-0.141-1.031-0.281-1.548-0.419c-1.049-0.278-2.1-0.55-3.154-0.815c-0.64-0.16-1.282-0.314-1.923-0.469   c-1.54-0.373-3.086-0.73-4.637-1.073c-0.931-0.206-1.861-0.414-2.797-0.609c-0.859-0.179-1.723-0.346-2.585-0.516   c-0.899-0.177-1.799-0.351-2.702-0.518c-0.823-0.152-1.646-0.302-2.472-0.446c-1.099-0.191-2.202-0.371-3.306-0.548   c-0.63-0.101-1.257-0.208-1.888-0.304c-1.657-0.251-3.321-0.481-4.989-0.698c-0.654-0.085-1.31-0.162-1.966-0.242   c-1.188-0.145-2.379-0.281-3.573-0.408c-0.647-0.069-1.295-0.138-1.944-0.202c-1.53-0.151-3.063-0.287-4.601-0.409   c-0.267-0.021-0.531-0.048-0.798-0.068c-1.793-0.136-3.593-0.246-5.397-0.342c-0.552-0.029-1.105-0.052-1.658-0.078   c-1.354-0.063-2.712-0.115-4.072-0.155c-0.553-0.017-1.106-0.034-1.66-0.047C243.709,0.028,241.858,0,240,0   C107.452,0,0,107.452,0,240c0,132.548,107.452,240,240,240c3.664,0,7.3-0.114,10.924-0.276   C203.298,447.927,167.681,399.56,152.326,342.861z M113.18,87.945c2.32-3.77,7.242-4.953,11.008-2.629l12.789,7.852   c2.906,1.785,4.359,5.219,3.625,8.551l-5.656,25.465c-0.828,3.73-4.141,6.266-7.805,6.266c-0.578,0-1.156-0.059-1.742-0.191   c-4.313-0.957-7.031-5.23-6.078-9.543l4.422-19.898l-7.93-4.867C112.047,96.641,110.867,91.711,113.18,87.945z" fill="#0e94d7"/><path d="M251.08,208.615l6.506,4.307l7.4-2.474C260.315,212.009,255.186,211.333,251.08,208.615z" fill="#00e389"/><path d="M306.883,151.695h0.004c1.711,0,3.377-0.549,4.753-1.566l12.453-9.207l-12.453,9.207   C310.265,151.145,308.594,151.695,306.883,151.695z" fill="#00e389"/><path d="M444.112,183.373l5.092,19.037l-49.767-15.815l77.07,24.492c0.563,0.171,1.143,0.16,1.708,0.09   c-3.573-29.834-12.625-57.978-26.106-83.412l-7.524,24.997C441.588,162.723,441.424,173.323,444.112,183.373z" fill="#00e389"/><path d="M330.374,288.44l-0.877,1.315c-5.935,8.9-15.925,14.245-26.622,14.245h-93.748   c-10.699,0-20.691,5.347-26.625,14.25l-15.068,22.602l-8.221,1.467c-6.264,1.118-12.555,0.53-18.314-1.504   c3.648,1.292,7.505,1.987,11.428,2.048c2.281,0.035,4.582-0.126,6.877-0.541l53.172-9.492l12.375,15.328   c8.383,10.375,19.391,18.391,31.844,23.18l5.406,2.078v33.391c0,3.633,1.313,10.16,4.016,19.957   c3.414,12.367,11.477,22.641,22.703,28.934c7.297,4.094,15.344,6.176,23.476,6.176c4.461,0,8.953-0.625,13.367-1.895   c1.195-0.34,2.164-1.219,2.617-2.371l35.023-88.531l46.875-44.164c0.625-0.586,1.039-1.355,1.195-2.195l4.672-25.75   c0.219-1.215-0.133-2.461-0.953-3.383c-0.828-0.922-2.031-1.379-3.258-1.324l-11.359,0.777c-7.391,0.512-14.398-1.887-19.836-6.414   l-34.502-5.129C339.911,280.581,333.81,283.287,330.374,288.44z" fill="#00e389"/><path d="M273.81,2.446c0.139,0.02,0.28,0.027,0.419,0.047c13.091,1.871,25.84,4.799,38.16,8.692   c0.893,0.283,1.755,0.629,2.644,0.922c5.05,1.662,10.039,3.46,14.935,5.442c1.634,0.662,3.227,1.401,4.843,2.098   c4.094,1.764,8.146,3.605,12.118,5.586c1.831,0.914,3.63,1.878,5.434,2.837c3.685,1.958,7.318,3.999,10.886,6.14   c1.819,1.092,3.625,2.202,5.413,3.34c1.381,0.88,2.703,1.842,4.065,2.75c-97.838,4.528-180.374,67.618-213.349,155.027l1.951-0.371   l11.052-8.253c2.367-1.768,4.199-4.156,5.291-6.902l6.962-17.486c6.273-5.809,15.453-6.988,22.937-3.035l21.773,19.305   c1.242,1.105,3.047,1.32,4.516,0.547c1.477-0.773,2.313-2.379,2.109-4.027l-2.258-17.809c0.109-2.352,1.922-3.277,2.469-3.504   c0.547-0.23,2.484-0.852,4.227,0.746l26.227,24.004c1.038,0.95,2.498,1.286,3.847,0.886l39.044-11.585L288,174.23l-2.03-3.61   c-3.503-6.231-2.287-14.051,2.944-18.924h-4.25c-4.422,0-8-3.582-8-8s3.578-8,8-8h19.586l10.328-7.641   c3.555-2.629,8.578-1.871,11.188,1.676c2.207,2.98,2.029,6.975-0.177,9.74L336,136h10.375l2.335,3.203l-20.477-28.086   c-2.609-3.57-1.82-8.578,1.75-11.18c3.57-2.605,8.57-1.813,11.172,1.75l20.477,28.086c1.361,1.863,1.79,4.115,1.389,6.214   l15.901-4.383c8.359-2.304,15.425-7.901,19.581-15.51l19.937-36.5c-13.416-14.917-28.677-28.138-45.422-39.314   c-29.184-19.477-62.876-32.735-99.191-37.861L273.81,2.446z" fill="#00e389"/><path d="M115.813,98.949l7.93,4.867l-4.422,19.898c-0.953,4.313,1.766,8.586,6.078,9.543   c0.586,0.133,1.164,0.191,1.742,0.191c3.664,0,6.977-2.535,7.805-6.266l5.656-25.465c0.734-3.332-0.719-6.766-3.625-8.551   l-12.789-7.852c-3.766-2.324-8.688-1.141-11.008,2.629C110.867,91.711,112.047,96.641,115.813,98.949z" fill="#00bbbb"/><path d="M159.377,195.328c32.975-87.409,115.511-150.499,213.349-155.027   c-1.362-0.907-2.684-1.87-4.065-2.75c-1.788-1.139-3.593-2.249-5.413-3.34c-3.567-2.141-7.201-4.182-10.886-6.14   c-1.804-0.959-3.603-1.923-5.434-2.837c-3.972-1.981-8.024-3.822-12.118-5.586c-1.616-0.697-3.208-1.436-4.843-2.098   c-4.896-1.982-9.885-3.78-14.935-5.442c-0.888-0.293-1.751-0.64-2.644-0.922c-12.32-3.894-25.068-6.822-38.16-8.692   c-0.139-0.02-0.28-0.027-0.419-0.047h0l-13.388,21.808c-0.516,0.949-1.383,1.633-2.422,1.926c-1.055,0.281-2.141,0.152-3.078-0.387   l-35.07-20.199c-1.438-0.824-3.227-0.684-4.508,0.352L165.25,46.348c-8.523,6.871-13.406,17.082-13.406,28.02v10.965   c0,1.195,0.531,2.328,1.461,3.09c0.922,0.758,2.141,1.059,3.313,0.836l35.555-6.977l-5.476,9.551   c-1.344,2.359-3.125,4.383-5.297,6.02l-31.805,24.004c-1.008,0.754-1.594,1.938-1.594,3.191v18.906l-10.656,1.133   c-10.586,1.121-18.43,10.328-17.859,20.957l0.578,10.691c0.461,8.582,6.328,15.895,14.609,18.199l10.867,3.023L159.377,195.328z" fill="#00bbbb"/><path d="M107.831,294.822c-1.106-6.555-1.118-13.266-0.02-19.851c-2.483,14.879,0.692,30.399,9.361,43.306   c-0.382-0.568-0.753-1.142-1.113-1.72C111.859,309.818,109.113,302.425,107.831,294.822z" fill="#00bbbb"/><path d="M113.719,257.233 113.718,257.234 125.977,233.59z" fill="#ffedb9"/><path d="M378.922,131.604l-15.901,4.383L362.976,136c-0.325,1.676-1.147,3.262-2.486,4.462   c-0.192,0.172-0.394,0.336-0.607,0.491c-1.422,1.035-3.07,1.535-4.703,1.535c-2.469,0-4.906-1.141-6.469-3.285L346.375,136H336   l-10.412,3.47l-0.261,0.087c-0.395,0.468-0.719,0.984-1.233,1.364l-12.453,9.207c-1.376,1.017-3.042,1.566-4.753,1.566h-0.004   h-17.969c-5.23,4.873-6.447,12.693-2.944,18.924l2.03,3.61l21.523-6.386c2.789,3.172,4.367,7.277,4.391,11.551   c0.016,4.992-2.094,9.773-5.797,13.117l-6.18,5.582l-36.952,12.354l-7.4,2.474l-6.506-4.307l-20.541-13.599   c-7.273-4.813-15.664-7.316-24.234-7.316c-2.563,0-5.141,0.227-7.703,0.68l-37.273,6.578l-1.951,0.371l-13.838,2.629l13.901-2.641   C149.499,221.657,144,250.178,144,280c0,21.739,2.954,42.774,8.373,62.797c-8.571-0.123-16.805-3.276-23.216-8.871   c3.462,3.036,7.448,5.371,11.741,6.888c5.759,2.034,12.05,2.623,18.314,1.504l8.221-1.467l15.068-22.602   c5.935-8.902,15.926-14.25,26.625-14.25h93.748c10.697,0,20.687-5.345,26.622-14.245l0.877-1.315   c3.436-5.152,9.537-7.859,15.663-6.948l34.502,5.129L320,208l14.517,4.839c6.175,2.058,11.575,5.951,15.481,11.158l37.037,49.383   c2.715,3.619,7.888,4.27,11.413,1.435l22.887-18.405c7.125-5.277,11.328-13.618,11.328-22.485v-0.015v-21.734   c0-1.285-0.617-2.492-1.656-3.242c-1.047-0.762-2.375-0.965-3.602-0.555l-8.898,2.945c-3.25,1.074-6.688,0.742-9.672-0.945   c-2.984-1.691-5.047-4.461-5.805-7.809l-3.594-15.977l49.767,15.815l-5.092-19.037c-2.688-10.05-2.524-20.649,0.474-30.611   l7.524-24.997l0.012-0.039c-1.582-2.983-3.247-5.915-4.949-8.822c-0.331-0.564-0.663-1.128-0.998-1.689   c-2.238-3.753-4.575-7.438-7.008-11.055c-0.201-0.299-0.403-0.597-0.606-0.896c-6.127-9.022-12.829-17.621-20.102-25.705   l-0.018,0.034l-19.937,36.5C394.347,123.703,387.281,129.301,378.922,131.604z" fill="#ffedb9"/><path d="M107.831,294.822c1.282,7.603,4.028,14.996,8.228,21.735   C111.859,309.818,109.113,302.425,107.831,294.822z" fill="#ffedb9"/><path d="M152.373,342.797C146.954,322.774,144,301.739,144,280c0-29.822,5.499-58.343,15.44-84.684   l-13.901,2.641c-11.898,3.621-20.023,14.641-19.742,27.387l0.18,8.246l-12.258,23.644v0c-0.007,0.014-0.014,0.029-0.021,0.043   c-0.622,1.202-1.201,2.418-1.736,3.648c-1.597,3.671-2.804,7.458-3.631,11.302c-0.013,0.059-0.028,0.117-0.04,0.176   c-0.088,0.414-0.164,0.83-0.243,1.246c-0.046,0.241-0.098,0.481-0.14,0.723c-0.035,0.2-0.063,0.4-0.096,0.6   c-1.098,6.585-1.085,13.296,0.02,19.851c1.282,7.603,4.028,14.996,8.228,21.735c0.36,0.578,0.731,1.152,1.113,1.72l5.82,8.667l0,0   c0.459,0.684,0.943,1.343,1.443,1.987c0.18,0.232,0.37,0.454,0.556,0.681c0.322,0.395,0.647,0.786,0.984,1.165   c0.25,0.28,0.505,0.553,0.763,0.825c0.276,0.291,0.555,0.577,0.84,0.858c0.318,0.313,0.637,0.623,0.965,0.923   c0.202,0.185,0.409,0.363,0.614,0.543C135.568,339.521,143.802,342.674,152.373,342.797z" fill="#ffd586"/></g><g transform="matrix(0.11881023645401001 0 0 0.11881023645401001 -27.000003915864454 34)" id="L1_3"><path d="M392.001,84.32 347.315,129.006 392.001,173.693z" fill="none"/><path d="M291.317,73.007 336.002,117.694 380.689,73.007z" fill="none"/><path d="M380.689,73.007l-44.686,44.686l5.657,5.658l0,0l5.655,5.655l44.686-44.686v89.374l16,16V68.32   l21.654-21.654c-4.942-2.365-8.947-6.371-11.312-11.313l-21.654,21.654H275.317l16,16H380.689z" fill="#ff9300"/><path d="M208.004,209.007c13.086,0,24.703,6.285,32,16l76-76L187.529,20.533   c3.867-5.296,7.929-10.482,12.417-15.405C145.584,64.744,136.66,153.781,177.712,222.9   C185.048,214.397,195.893,209.007,208.004,209.007z" fill="#d5d9de"/><path d="M429.655,46.666c3.134,1.5,6.643,2.341,10.348,2.341c13.255,0,24-10.745,24-24s-10.745-24-24-24   s-24,10.745-24,24c0,3.705,0.841,7.213,2.34,10.346C420.708,40.295,424.713,44.301,429.655,46.666z" fill="#ffcf00"/><path d="M247.983,248.204c0.005,0.268,0.02,0.534,0.02,0.803c0,22.092-17.909,40-40,40s-40-17.908-40-40   c0-0.278,0.015-0.552,0.021-0.829l-30.753,176.829h141.46l-22.646-130.214L247.983,248.204z" fill="#888693"/><path d="M120.002,425.007c-8.82,0-16,7.176-16,16v24h208v-24c0-8.824-7.18-16-16-16h-17.27h-141.46H120.002z   " fill="#b6b8be"/><path d="M80.002,465.007c-13.234,0-24,10.766-24,24h304c0-13.234-10.766-24-24-24h-24h-208H80.002z" fill="#888693"/><path d="M48.002,489.007c-4.422,0-8,3.582-8,8s3.578,8,8,8h320c4.422,0,8-3.582,8-8s-3.578-8-8-8h-8h-304   H48.002z" fill="#5c546a"/><path d="M208.004,289.007c22.091,0,40-17.908,40-40c0-0.269-0.015-0.535-0.02-0.803l8.102,46.589   c25.517,12.37,52.864,18.472,80.064,18.472c44.633-0.004,88.836-16.383,123.734-48.207c-3.52,3.21-7.198,6.15-10.898,9.044   c-1.482,1.146-2.95,2.32-4.455,3.425l-0.004,0.003L316.004,149.007l25.656-25.656l-5.657-5.658l-44.686-44.686l-16-16   L223.033,4.722c-3.094-3.098-7.438-4.852-11.789-4.715c-4.375,0.105-8.383,1.926-11.297,5.121   c-4.489,4.922-8.551,10.109-12.417,15.405l128.474,128.474l-76,76c-7.298-9.715-18.914-16-32-16   c-12.111,0-22.956,5.39-30.291,13.893c-5.876,6.812-9.491,15.623-9.688,25.278c-0.006,0.277-0.021,0.551-0.021,0.829   C168.004,271.099,185.912,289.007,208.004,289.007z M224.004,249.007c0,8.837-7.163,16-16,16s-16-7.163-16-16   c0-8.836,7.163-16,16-16S224.004,240.171,224.004,249.007z" fill="#b6b8be"/><circle cx="208" cy="249" r="16" fill="#5c546a"/><path d="M347.315,129.006l-5.655-5.655l0,0l-25.656,25.656l128.523,128.524l0.004-0.003   c1.504-1.105,2.972-2.279,4.455-3.425c3.7-2.895,7.378-5.834,10.898-9.044c3.203-2.918,5.023-6.938,5.117-11.313   c0.102-4.383-1.617-8.672-4.711-11.762l-52.289-52.29l-16-16L347.315,129.006z" fill="#888693"/></g><g transform="matrix(0.08240351660215356 -0.05704858576060925 0.05704858576060925 0.08240351660215356 111.3002462765476 70.50910817050072)" id="L1_4"><path d="M264,445.93V352V232c0-4.418-3.582-8-8-8c-4.418,0-8,3.582-8,8v120v93.93h-25.391   c-2.293,0-4.509-0.322-6.609-0.915v24.915c0,4.422,3.578,8,8,8h24V504c0,4.418,3.582,8,8,8c4.418,0,8-3.582,8-8v-26.07h24   c4.422,0,8-3.578,8-8v-24.915c-2.101,0.593-4.317,0.915-6.609,0.915H264z" fill="#5c546a"/><path d="M439.89,500.617l-20.148-120.914c-2.727-16.359-9.43-32.023-19.391-45.297L320,227.269V349.93   l-6.13,67.747L427,508.179c1.453,1.156,3.227,1.75,5,1.75c1.391,0,2.789-0.359,4.047-1.102   C438.906,507.148,440.437,503.883,439.89,500.617z" fill="#5c546a"/><path d="M192.153,352l-0.122-1.344l-0.017-123.407l-80.366,107.157   c-9.961,13.273-16.664,28.937-19.391,45.297L72.109,500.617c-0.547,3.266,0.984,6.531,3.844,8.211   c1.258,0.742,2.656,1.102,4.047,1.102c1.773,0,3.547-0.594,5-1.75l113.127-90.501L192.153,352L192.153,352z" fill="#5c546a"/><path d="M320,227.269V125.93c0-44.911-26.015-89.408-42.771-113.401   c8.448,12.104,19.231,29.443,27.868,49.399H256V103c17.081,0,30.928,13.847,30.928,30.928c0,17.081-13.847,30.928-30.928,30.928   V224c4.418,0,8,3.582,8,8v120h55.812l-6.523,72.102l0.581-6.425L320,349.93V227.269z" fill="#ff4f19"/><path d="M192.153,352H248V232c0-4.418,3.582-8,8-8v-59.143c-17.081,0-30.928-13.847-30.928-30.928   C225.072,116.847,238.919,103,256,103V61.928h-49.097c8.636-19.956,19.419-37.295,27.868-49.399   C218.015,36.521,192,81.019,192,125.93l0.014,101.32l0.017,123.407L192.153,352z" fill="#e5001e"/><path d="M319.813,352H264v93.93h25.391c2.293,0,4.509-0.322,6.609-0.915   c9.344-2.638,16.364-10.752,17.289-20.913L319.813,352z" fill="#b6b8be"/><path d="M248,445.93V352h-55.847l0,0l0,0l5.973,65.678l0.584,6.423c0.925,10.161,7.945,18.275,17.289,20.913   c2.101,0.593,4.316,0.915,6.609,0.915H248z" fill="#888693"/><circle cx="256" cy="133" r="30" fill="#5c546a"/><path d="M256,61.928V0c-7.711,0-14.992,3.758-19.484,10.055c-0.539,0.755-1.089,1.534-1.649,2.337   c-0.031,0.045-0.064,0.093-0.095,0.137c-8.448,12.104-19.231,29.443-27.868,49.399H256z" fill="#5c546a"/><path d="M305.097,61.928c-8.636-19.956-19.42-37.295-27.868-49.399c-0.031-0.045-0.064-0.093-0.095-0.137   c-0.561-0.802-1.111-1.582-1.649-2.337C270.992,3.758,263.711,0,256,0v61.928H305.097z" fill="#888693"/></g><g transform="matrix(0.0649248809809399 0.06492488098093989 -0.06492488098093989 0.0649248809809399 248 137.75846093775877)" id="L1_5"><path d="M256,59.313 243.312,72 256,72 268.687,72z" fill="none"/><path d="M232,416 232,432 256,432 280,432 280,416 256,416z" fill="#5c546a"/><path d="M240,456h16v-24h-24h-8c-8.82,0-16,7.176-16,16v48c0,8.824,7.18,16,16,16h8v-48   C232,459.582,235.582,456,240,456z" fill="#888693"/><path d="M256,456h16c4.418,0,8,3.582,8,8v48h8c8.82,0,16-7.176,16-16v-48c0-8.824-7.18-16-16-16h-8h-24V456z   " fill="#b6b8be"/><rect x="88px" y="280px" width="72px" height="48px" fill="#5c546a"/><path d="M88,392h48c13.234,0,24-10.766,24-24v-24H88V392z" fill="#5c546a"/><rect x="0px" y="280px" width="72px" height="48px" fill="#5c546a"/><path d="M0,344v24c0,13.234,10.766,24,24,24h48v-48H0z" fill="#5c546a"/><rect x="0px" y="216px" width="72px" height="48px" fill="#5c546a"/><rect x="88px" y="216px" width="72px" height="48px" fill="#5c546a"/><path d="M72,152H24c-13.234,0-24,10.766-24,24v24h72V152z" fill="#5c546a"/><path d="M160,200v-24c0-13.234-10.766-24-24-24H88v48H160z" fill="#5c546a"/><path d="M160,264 88,264 88,216 160,216 160,200 88,200 88,152 72,152 72,200 0,200 0,216 72,216    72,264 0,264 0,280 72,280 72,328 0,328 0,344 72,344 72,392 88,392 88,344 160,344 160,328 88,328 88,280 160,280 176,280    176,264z" fill="#888693"/><rect x="440px" y="280px" width="72px" height="48px" fill="#5c546a"/><path d="M352,344v24c0,13.234,10.766,24,24,24h48v-48H352z" fill="#5c546a"/><path d="M440,392h48c13.234,0,24-10.766,24-24v-24h-72V392z" fill="#5c546a"/><rect x="352px" y="280px" width="72px" height="48px" fill="#5c546a"/><path d="M424,152h-48c-13.234,0-24,10.766-24,24v24h72V152z" fill="#5c546a"/><rect x="440px" y="216px" width="72px" height="48px" fill="#5c546a"/><path d="M488,152h-48v48h72v-24C512,162.766,501.234,152,488,152z" fill="#5c546a"/><rect x="352px" y="216px" width="72px" height="48px" fill="#5c546a"/><path d="M440,152 424,152 424,200 352,200 352,216 424,216 424,264 352,264 336,264 336,280 352,280    424,280 424,328 352,328 352,344 424,344 424,392 440,392 440,344 512,344 512,328 440,328 440,280 512,280 512,264 440,264    440,216 512,216 512,200 440,200z" fill="#888693"/><path d="M272,200v-17.209c-5.217,0.792-10.559,1.209-16,1.209s-10.783-0.417-16-1.209V200h16H272z" fill="#5c546a"/><path d="M336,216c0-8.824-7.18-16-16-16h-48h-16v40h16c13.255,0,24,10.745,24,24v152h16   c13.234,0,24-10.766,24-24V280v-16V216z" fill="#ffcf00"/><path d="M240,240h16v-40h-16h-48c-8.82,0-16,7.176-16,16v48v16v112c0,13.234,10.766,24,24,24h16V264   C216,250.745,226.745,240,240,240z" fill="#ff9300"/><path d="M256,59.313L268.687,72h22.625L264,44.688v-5.767c-1.178,0.682-2.541,1.079-4,1.079h-8   c-1.459,0-2.822-0.397-4-1.079v5.767L220.687,72h22.625L256,59.313z" fill="#5c546a"/><path d="M256,72h-12.688h-22.625h-52.281c-4.484,0-8.797,1.906-11.828,5.227   c-3.047,3.332-4.555,7.824-4.148,12.32c4.413,48.436,40.882,86.15,87.57,93.244c5.217,0.792,10.559,1.209,16,1.209V72z" fill="#888693"/><path d="M260,40c1.459,0,2.822-0.397,4-1.079c2.389-1.384,4-3.961,4-6.921V8c0-4.418-3.582-8-8-8h-8   c-4.418,0-8,3.582-8,8v24c0,2.959,1.611,5.537,4,6.921c1.178,0.682,2.541,1.079,4,1.079H260z" fill="#ffcf00"/><path d="M256,240h-16c-13.255,0-24,10.745-24,24v152h16h24V240z" fill="#ff7400"/><path d="M256,72v112c5.441,0,10.783-0.417,16-1.209c46.688-7.093,83.157-44.808,87.57-93.244   c0.406-4.496-1.102-8.988-4.148-12.32C352.39,73.906,348.078,72,343.594,72h-52.281h-22.625H256z" fill="#b6b8be"/><path d="M272,240h-16v176h24h16V264C296,250.745,285.255,240,272,240z" fill="#ff9300"/><path d="M240,456c-4.418,0-8,3.582-8,8v48h24v-56H240z" fill="#5c546a"/><path d="M272,456h-16v56h24v-48C280,459.581,276.418,456,272,456z" fill="#888693"/></g><g transform="matrix(0.11672727763652802 0 0 0.11672727763652802 -26.882183074951172 227.11781692504883)" id="L1_6"><rect x="206px" y="306px" width="100px" height="40px" fill="#fa9600"/><circle cx="256" cy="462" r="40" fill="#81b3e6"/><path d="M256,10c49.706,0,90,51.487,90,115s-40.294,115-90,115c71.797,0,130-51.487,130-115   S327.797,10,256,10z" fill="#f0f0f0"/><path d="M166,125c0-63.513,40.294-115,90-115c-71.797,0-130,51.487-130,115s58.203,115,130,115   C206.294,240,166,188.513,166,125z" fill="#f0f0f0"/><path d="M216,125c0-63.513,17.909-115,40-115c-49.706,0-90,51.487-90,115s40.294,115,90,115   C233.909,240,216,188.513,216,125z" fill="#c8e7f9"/><path d="M346,125c0-63.513-40.294-115-90-115c22.091,0,40,51.487,40,115s-17.909,115-40,115   C305.706,240,346,188.513,346,125z" fill="#c8e7f9"/><ellipse cx="256px" cy="125px" rx="40px" ry="115px" fill="#f0f0f0"/><g><path d="M193.69,259.7c-1.72-3.37-5.14-5.47-8.92-5.47c-1.58,0-3.11,0.37-4.53,1.09c-4.91,2.5-6.88,8.53-4.38,13.44    c1.72,3.38,5.13,5.48,8.92,5.48c1.58,0,3.11-0.37,4.52-1.09c2.39-1.21,4.15-3.28,4.98-5.82    C195.11,264.79,194.9,262.08,193.69,259.7z"/><path d="M331.76,255.32c-1.42-0.72-2.95-1.09-4.53-1.09c-3.79,0-7.2,2.1-8.92,5.47c-1.21,2.38-1.42,5.09-0.59,7.63    c0.83,2.54,2.59,4.61,4.97,5.82c1.42,0.72,2.95,1.09,4.53,1.09c3.79,0,7.2-2.1,8.92-5.48    C338.64,263.85,336.67,257.82,331.76,255.32z"/><path d="M256,0c-77.196,0-140,56.075-140,125c0,22.547,6.723,43.718,18.469,62.002c0.163,0.517,0.358,1.029,0.611,1.528    l22.66,44.57c1.71,3.38,5.13,5.48,8.92,5.48c1.58,0,3.1-0.37,4.52-1.09c3.676-1.867,5.702-5.705,5.452-9.578    c19.995,12.331,43.738,20.143,69.369,21.766V296h-33.865l-0.325-0.64c-1.71-3.37-5.13-5.47-8.92-5.47c-1.58,0-3.11,0.37-4.52,1.09    c-4.92,2.5-6.89,8.53-4.39,13.44l2.02,3.981V346c0,5.523,4.477,10,10,10h40v57.006c-22.795,4.646-40,24.847-40,48.994    c0,27.57,22.43,50,50,50s50-22.43,50-50c0-24.146-17.205-44.348-40-48.994V356h40c5.523,0,10-4.477,10-10v-37.612l2.02-3.968    c2.5-4.91,0.53-10.94-4.39-13.44c-1.41-0.72-2.94-1.09-4.52-1.09c-3.79,0-7.21,2.1-8.92,5.47l-0.326,0.64H266v-46.322    c25.63-1.623,49.372-9.434,69.366-21.764c-0.082,1.254,0.071,2.525,0.473,3.757c0.83,2.54,2.6,4.61,4.98,5.82    c1.42,0.72,2.94,1.09,4.52,1.09c3.79,0,7.21-2.1,8.92-5.47l22.66-44.58c0.254-0.5,0.454-1.018,0.62-1.543    C389.281,168.706,396,147.541,396,125C396,56.075,333.196,0,256,0z M286,125c0,67.938-19.818,105-30,105s-30-37.062-30-105    s19.818-105,30-105S286,57.062,286,125z M136,125c0-32.595,17.063-61.77,43.783-81.043C164.398,66.53,156,94.988,156,125    s8.398,58.47,23.783,81.043C153.063,186.77,136,157.595,136,125z M176,125c0-42.231,19.096-78.713,46.549-95.367    C211.613,53.752,206,89.498,206,125s5.613,71.248,16.549,95.367C195.096,203.713,176,167.231,176,125z M286,462    c0,16.542-13.458,30-30,30s-30-13.458-30-30s13.458-30,30-30S286,445.458,286,462z M296,316v20h-80v-20H296z M289.451,220.367    C300.387,196.248,306,160.502,306,125s-5.613-71.248-16.549-95.367C316.904,46.287,336,82.769,336,125    S316.904,203.713,289.451,220.367z M332.217,206.043C347.602,183.47,356,155.012,356,125s-8.398-58.47-23.783-81.043    C358.938,63.23,376,92.405,376,125S358.938,186.77,332.217,206.043z"/></g></g><g transform="matrix(0.1171875 0 0 0.1171875 217 317)" id="L1_7"><path d="M340.299,384l-76.127-137.023c-0.018,0.005-0.035,0.01-0.052,0.015V384H340.299z" fill="none"/><path d="M248.12,384V246.992c-0.02-0.005-0.04-0.012-0.06-0.017L171.936,384H248.12z" fill="none"/><path d="M264.12,384 264.12,400 349.188,400 340.299,384z" fill="#888693"/><path d="M171.936,384 163.048,400 248.12,400 248.12,384z" fill="#888693"/><path d="M504.166,62.273c-8.96-21.619-25.374-39.016-46.409-49.328l48.474,117.02   C513.815,107.806,513.125,83.895,504.166,62.273z" fill="#48bbee"/><path d="M133.659,217.722 386.112,111.749 364.494,59.556 103.448,169.137 112.04,165.53z" fill="#b6b8be"/><path d="M386.336,112.29L386.336,112.29l-0.224-0.541L133.659,217.722l0.105,0.253h0L154.899,269   l-8.561,3.594l85.418-35.856c-4.76-5.586-7.639-12.824-7.639-20.738c0-17.673,14.327-32,32-32   c16.707,0,30.416,12.805,31.866,29.135l119.369-50.108c-0.004-0.01-0.01-0.021-0.014-0.031L386.336,112.29z" fill="#888693"/><path d="M386.336,112.29l95.897-40.256l27.316,65.943l-3.319-8.011l-48.474-117.02l-3.317-8.008   c-0.813-1.961-2.367-3.516-4.328-4.328c-1.969-0.813-4.156-0.813-6.125,0l-66.516,27.555c-5.922,2.449-10.531,7.063-12.992,12.984   c-2.453,5.922-2.453,12.449,0,18.371l0.015,0.036l21.618,52.193L386.336,112.29z" fill="#ff4f19"/><path d="M46.109,218.865 46.112,218.871 70.604,277.992 70.604,277.993 122.349,256.56    97.853,197.433z" fill="#5c546a"/><path d="M248.06,246.975c-5.327-1.382-10.109-4.107-13.979-7.785L89.127,500.113   c-2.148,3.863-0.758,8.734,3.109,10.879c1.227,0.684,2.563,1.008,3.875,1.008c2.813,0,5.539-1.484,7-4.113L163.048,400l8.889-16   L248.06,246.975z" fill="#5c546a"/><path d="M340.299,384l8.889,16l59.939,107.887c1.461,2.629,4.188,4.113,7,4.113   c1.313,0,2.648-0.324,3.875-1.008c3.867-2.145,5.258-7.016,3.109-10.879l-144.96-260.919c-3.869,3.677-8.652,6.401-13.979,7.782   L340.299,384z" fill="#5c546a"/><path d="M264.12,246.991c-2.558,0.658-5.239,1.009-8.001,1.009c-2.762,0-5.442-0.35-7.999-1.008V384v16v104   c0,4.418,3.578,8,8,8s8-3.582,8-8V400v-16V246.991z" fill="#5c546a"/><path d="M110.423,227.774l23.341-9.798l-0.105-0.253L112.04,165.53l-8.593,3.607   c-3.945,1.637-7.023,4.711-8.656,8.656c-1.641,3.953-1.641,8.305,0,12.25l3.062,7.39l24.496,59.127l3.06,7.385L110.423,227.774z" fill="#ff4f19"/><path d="M133.765,217.976L133.765,217.976l-23.341,9.798l14.985,36.171c1.633,3.953,4.703,7.027,8.656,8.664   c1.969,0.816,4.039,1.227,6.109,1.227c2.086,0,4.172-0.414,6.164-1.242l8.561-3.594L133.765,217.976z" fill="#e5001e"/><path d="M482.233,72.034l-95.897,40.256h0l21.002,50.707c0.005,0.011,0.01,0.021,0.014,0.031   c3.835,9.211,12.778,14.781,22.197,14.781c3.055,0,6.156-0.586,9.148-1.824l66.523-27.555c1.961-0.813,3.516-2.367,4.328-4.328   s0.813-4.164,0-6.125L482.233,72.034z" fill="#e5001e"/><path d="M58.666,249.176l11.938,28.816l-24.492-59.121c-0.001-0.002-0.002-0.004-0.003-0.006   c-3.369-8.148-12.749-12.029-20.904-8.662l-14.781,6.125c-8.141,3.379-12.023,12.754-8.656,20.906l24.492,59.121l-11.936-28.813   L58.666,249.176z" fill="#ff4f19"/><path d="M58.666,249.176l-44.342,18.367l11.936,28.813c1.633,3.953,4.703,7.031,8.656,8.664   c1.977,0.82,4.047,1.227,6.125,1.227c2.07,0,4.148-0.41,6.125-1.227l14.781-6.125c3.953-1.633,7.023-4.707,8.656-8.656   c1.641-3.949,1.641-8.3,0-12.245c0,0,0-0.001,0-0.001L58.666,249.176z" fill="#e5001e"/><path d="M256.118,184c-17.673,0-32,14.327-32,32c0,7.914,2.879,15.152,7.639,20.738   c0.731,0.858,1.508,1.677,2.325,2.453c3.869,3.678,8.651,6.403,13.979,7.785c0.02,0.005,0.04,0.012,0.06,0.017   c2.556,0.658,5.237,1.008,7.999,1.008c2.763,0,5.444-0.35,8.001-1.009c0.018-0.005,0.035-0.01,0.052-0.015   c5.327-1.381,10.11-4.105,13.979-7.782c6.135-5.83,9.967-14.062,9.967-23.194c0-0.966-0.05-1.921-0.134-2.865   C286.534,196.805,272.825,184,256.118,184z M256.118,232c-8.836,0-16-7.164-16-16c0-8.837,7.164-16,16-16s16,7.163,16,16   C272.118,224.836,264.954,232,256.118,232z" fill="#b6b8be"/><circle cx="256" cy="216" r="16" fill="#5c546a"/></g></defs><g fi:class="KUsePattern"><pattern id="pattern_L1_0" width="350" height="350" patternUnits="userSpaceOnUse"><use xlink:href="#L1_0" x="-350" y="-350"/><use xlink:href="#L1_0" x="0" y="-350"/><use xlink:href="#L1_0" x="350" y="-350"/><use xlink:href="#L1_0" x="-350" y="0"/><use xlink:href="#L1_0" x="0" y="0"/><use xlink:href="#L1_0" x="350" y="0"/><use xlink:href="#L1_0" x="-350" y="350"/><use xlink:href="#L1_0" x="0" y="350"/><use xlink:href="#L1_0" x="350" y="350"/></pattern><rect x="0" y="0" width="100%" height="100%" fill="url(#pattern_L1_0)"/></g><g fi:class="KUsePattern"><pattern id="pattern_L1_3" width="350" height="350" patternUnits="userSpaceOnUse"><use xlink:href="#L1_3" x="-350" y="-350"/><use xlink:href="#L1_3" x="0" y="-350"/><use xlink:href="#L1_3" x="350" y="-350"/><use xlink:href="#L1_3" x="-350" y="0"/><use xlink:href="#L1_3" x="0" y="0"/><use xlink:href="#L1_3" x="350" y="0"/><use xlink:href="#L1_3" x="-350" y="350"/><use xlink:href="#L1_3" x="0" y="350"/><use xlink:href="#L1_3" x="350" y="350"/></pattern><rect x="0" y="0" width="100%" height="100%" fill="url(#pattern_L1_3)"/></g><g fi:class="KUsePattern"><pattern id="pattern_L1_4" width="350" height="350" patternUnits="userSpaceOnUse"><use xlink:href="#L1_4" x="-350" y="-350"/><use xlink:href="#L1_4" x="0" y="-350"/><use xlink:href="#L1_4" x="350" y="-350"/><use xlink:href="#L1_4" x="-350" y="0"/><use xlink:href="#L1_4" x="0" y="0"/><use xlink:href="#L1_4" x="350" y="0"/><use xlink:href="#L1_4" x="-350" y="350"/><use xlink:href="#L1_4" x="0" y="350"/><use xlink:href="#L1_4" x="350" y="350"/></pattern><rect x="0" y="0" width="100%" height="100%" fill="url(#pattern_L1_4)"/></g><g fi:class="KUsePattern"><pattern id="pattern_L1_5" width="350" height="350" patternUnits="userSpaceOnUse"><use xlink:href="#L1_5" x="-350" y="-350"/><use xlink:href="#L1_5" x="0" y="-350"/><use xlink:href="#L1_5" x="350" y="-350"/><use xlink:href="#L1_5" x="-350" y="0"/><use xlink:href="#L1_5" x="0" y="0"/><use xlink:href="#L1_5" x="350" y="0"/><use xlink:href="#L1_5" x="-350" y="350"/><use xlink:href="#L1_5" x="0" y="350"/><use xlink:href="#L1_5" x="350" y="350"/></pattern><rect x="0" y="0" width="100%" height="100%" fill="url(#pattern_L1_5)"/></g><g fi:class="KUsePattern"><pattern id="pattern_L1_6" width="350" height="350" patternUnits="userSpaceOnUse"><use xlink:href="#L1_6" x="-350" y="-350"/><use xlink:href="#L1_6" x="0" y="-350"/><use xlink:href="#L1_6" x="350" y="-350"/><use xlink:href="#L1_6" x="-350" y="0"/><use xlink:href="#L1_6" x="0" y="0"/><use xlink:href="#L1_6" x="350" y="0"/><use xlink:href="#L1_6" x="-350" y="350"/><use xlink:href="#L1_6" x="0" y="350"/><use xlink:href="#L1_6" x="350" y="350"/></pattern><rect x="0" y="0" width="100%" height="100%" fill="url(#pattern_L1_6)"/></g><g fi:class="KUsePattern"><pattern id="pattern_L1_7" width="350" height="350" patternUnits="userSpaceOnUse"><use xlink:href="#L1_7" x="-350" y="-350"/><use xlink:href="#L1_7" x="0" y="-350"/><use xlink:href="#L1_7" x="350" y="-350"/><use xlink:href="#L1_7" x="-350" y="0"/><use xlink:href="#L1_7" x="0" y="0"/><use xlink:href="#L1_7" x="350" y="0"/><use xlink:href="#L1_7" x="-350" y="350"/><use xlink:href="#L1_7" x="0" y="350"/><use xlink:href="#L1_7" x="350" y="350"/></pattern><rect x="0" y="0" width="100%" height="100%" fill="url(#pattern_L1_7)"/></g></svg>