<svg xmlns="http://www.w3.org/2000/svg" viewBox="0 0 24 24">
  <defs/>
  <path fill="none" d="M0 0h24v24H0z"/>
  <path d="M15 12c2.21 0 4-1.79 4-4s-1.79-4-4-4-4 1.79-4 4 1.79 4 4 4zm-9-2V7H4v3H1v2h3v3h2v-3h3v-2H6zm9 4c-2.67 0-8 1.34-8 4v2h16v-2c0-2.66-5.33-4-8-4z"/>
  <path stroke="#000" d="M9 3.5L15 6l6-2.5-6-2.1403941z"/>
  <path fill="none" stroke="#000" d="M20.5 4v3l-.25.5.5.75.5-.75L21 7V4z"/>
  <path fill="#fff" d="M14.749097 11.988335c-.01549-.0015-.07343-.0065-.128748-.01118-.704462-.05973-1.433425-.341383-2.015707-.778821-.217109-.163103-.504169-.434469-.665424-.629043-.515723-.6222841-.816763-1.3258849-.912355-2.132385-.017342-.1463138-.024462-.5726192-.012183-.7294559.068036-.8689954.392601-1.6553505.953596-2.3103648l.07767-.090693-.03448-.014596c-.018954-.0080281-1.011242-.4215029-2.2050754-.9188329-1.1938337-.4973301-2.1705933-.9061999-2.170577-.9085995.0000163-.0024 1.657543-.5954689 3.6833924-1.3179315L15.002569.83286383l3.665288 1.30752677c2.015908.7191398 3.674229 1.3114352 3.685158 1.316212.01775.00776-.02636.027943-.414165.1894804-.238718.099437-.436803.1851526-.440188.1904782-.0034.00533-.0062.6911875-.0063 1.5241377l-.000121 1.5144548.164918.3303261.164917.3303261-.533055.8003506c-.293159.4401927-.535159.8004549-.537756.8005829-.002597.0001287-.245059-.3603116-.538805-.8009766l-.534084-.8012093.162621-.3253596.16262-.3253597V5.6681328c0-.6910032-.003-1.2145437-.007-1.2130191-.135371.05159-2.0365.8500127-2.036635.8553315-.000113.00426.01384.022363.03101.040234.10621.1105947.292771.362104.415927.5607252.09063.1461578.249672.4638002.311666.6224494.270837.6931109.344167 1.4370127.214563 2.1766416-.02416.137853-.09024.3978394-.137032.5391312-.286327.8645344-.848837 1.5961674-1.611241 2.0956704-.563553.369223-1.207726.587547-1.888151.639933-.09767.0075-.477798.0097-.547581.0031zM4.0050974 13.487037V11.97425H1.0117123v-1.963403H4.0050974V7.0174621h1.9955902v2.9933849H8.9940727v1.963403H6.0006876v3.025573H4.0050974zM7.0310516 18.838115c.0004084-1.230203.00826-1.306923.1699963-1.660192.5410431-1.181794 2.3194591-2.204861 4.8440691-2.786639 2.046802-.471672 3.660045-.486021 5.687947-.05059 2.521137.541337 4.404147 1.564111 5.000803 2.716231.238332.460212.23892.464295.253743 1.765097l.0133 1.166777H7.0306696z"/>
</svg>
